<mxfile host="app.diagrams.net" modified="2023-05-19T20:43:07.082Z" agent="Mozilla/5.0 (Windows NT 10.0; Win64; x64) AppleWebKit/537.36 (KHTML, like Gecko) Chrome/113.0.0.0 Safari/537.36" version="21.1.5" etag="4FODUYg0JFQzbiQPsyPy" type="github">
  <diagram name="Page-1" id="6_Wb5thlT8xrbGgKImg-">
    <mxGraphModel>
      <root>
        <mxCell id="0" />
        <mxCell id="1" parent="0" />
      </root>
    </mxGraphModel>
  </diagram>
</mxfile>
